<?xml version="1.0" encoding="UTF-8" standalone="no"?>
<svg
   width="77.218201"
   height="62"
   viewBox="0 0 77.218201 62"
   fill="none"
   version="1.1"
   id="svg14"
   sodipodi:docname="Logo bar.svg"
   inkscape:version="1.2.1 (9c6d41e410, 2022-07-14)"
   xmlns:inkscape="http://www.inkscape.org/namespaces/inkscape"
   xmlns:sodipodi="http://sodipodi.sourceforge.net/DTD/sodipodi-0.dtd"
   xmlns="http://www.w3.org/2000/svg"
   xmlns:svg="http://www.w3.org/2000/svg">
  <defs
     id="defs18" />
  <sodipodi:namedview
     id="namedview16"
     pagecolor="#ffffff"
     bordercolor="#000000"
     borderopacity="0.25"
     inkscape:showpageshadow="2"
     inkscape:pageopacity="0.0"
     inkscape:pagecheckerboard="0"
     inkscape:deskcolor="#d1d1d1"
     showgrid="false"
     inkscape:zoom="0.8362024"
     inkscape:cx="957.90206"
     inkscape:cy="21.525889"
     inkscape:window-width="1920"
     inkscape:window-height="986"
     inkscape:window-x="-11"
     inkscape:window-y="-11"
     inkscape:window-maximized="1"
     inkscape:current-layer="svg14" />
  <path
     d="m 139.026,20.8188 c 0.626,0 1.232,-0.2505 1.816,-0.7516 0.585,-0.5428 0.877,-1.0856 0.877,-1.6285 0,-0.668 -0.376,-1.1691 -1.127,-1.5031 v -0.0627 c -2.338,-0.7933 -4.739,-1.19 -7.203,-1.19 -4.134,0 -7.558,1.2944 -10.272,3.8832 -2.672,2.5471 -4.008,6.0545 -4.008,10.5223 0,3.2987 0.814,6.3886 2.442,9.2697 0.794,1.4614 1.879,2.6514 3.257,3.57 1.378,0.9186 2.777,1.378 4.197,1.378 2.296,0 6.075,-1.1066 11.336,-3.3196 0.961,-0.6263 1.441,-1.3779 1.441,-2.2548 0,-1.0438 -0.564,-1.5658 -1.691,-1.5658 -0.167,0 -1.629,0.4802 -4.385,1.4406 -2.755,0.9603 -4.655,1.4405 -5.699,1.4405 -1.086,0 -2.13,-0.5219 -3.132,-1.5658 -2.046,-2.0042 -3.069,-4.7183 -3.069,-8.1422 0,-6.7644 3.382,-10.1465 10.147,-10.1465 z m 9.658,23.5499 c 0.626,0 1.231,-0.2088 1.816,-0.6263 0.585,-0.4594 0.898,-0.9395 0.94,-1.4406 0.167,-2.1713 0.25,-8.9565 0.25,-20.3556 0,-2.5888 -0.021,-4.1129 -0.063,-4.5722 -0.041,-0.6681 -0.292,-1.1692 -0.751,-1.5032 -0.418,-0.2923 -0.94,-0.4384 -1.566,-0.4384 -0.626,0 -1.148,0.1879 -1.566,0.5637 -0.376,0.334 -0.563,0.7933 -0.563,1.3779 l -0.251,25.4915 c 0,1.0021 0.585,1.5032 1.754,1.5032 z m 24.764,-24.9905 c 3.925,0 5.888,-0.856 5.888,-2.5679 0,-0.8351 -0.564,-1.3779 -1.692,-1.6285 l -19.541,0.6264 c -0.585,0.0417 -1.127,0.3131 -1.628,0.8142 -0.46,0.5011 -0.689,1.0021 -0.689,1.5032 0,1.0856 0.647,1.6284 1.941,1.6284 2.297,0 4.844,-0.1044 7.641,-0.3131 -0.25,2.8811 -0.375,6.6182 -0.375,11.2112 0,3.8415 0.062,7.8291 0.188,11.9629 0,1.1691 0.542,1.7537 1.628,1.7537 0.626,0 1.19,-0.1879 1.691,-0.5637 0.543,-0.4176 0.814,-0.9186 0.814,-1.5032 0,-1.5032 -0.021,-2.6723 -0.062,-3.5074 l -0.063,-4.6975 0.125,-14.8439 z m 27.1,-4.1337 c -0.208,0 -0.48,0.1044 -0.814,0.3131 -0.626,0.3341 -1.586,1.5032 -2.881,3.5075 l -1.941,3.1316 -2.381,3.6327 c -0.626,-0.9186 -1.44,-2.2548 -2.442,-4.0085 -2.464,-4.2173 -3.988,-6.3259 -4.572,-6.3259 -0.835,0 -1.545,0.4384 -2.13,1.3153 -0.25,0.3758 -0.376,0.7098 -0.376,1.0021 0,0.2505 0.063,0.4802 0.188,0.689 2.881,5.2611 5.22,9.0608 7.015,11.3991 0.125,1.1274 0.188,2.2339 0.188,3.3196 l -0.063,6.7643 c 0,2.2965 0.23,3.6744 0.689,4.1338 0.167,0.167 0.439,0.2505 0.815,0.2505 1.294,0 2.066,-0.5428 2.317,-1.6285 0.25,-1.0856 0.376,-3.5074 0.376,-7.2654 v -5.449 c 0.584,-1.0021 1.232,-1.9625 1.941,-2.8811 l 0.877,-1.3153 1.503,-2.2548 1.629,-2.5053 c 1.127,-1.8372 1.691,-3.2778 1.691,-4.3216 0,-0.8769 -0.543,-1.378 -1.629,-1.5032 z m 24.67,16.8482 c 0.877,0 1.566,-0.2506 2.067,-0.7516 0.501,-0.5011 0.752,-1.1274 0.752,-1.879 0,-1.5449 -0.773,-2.3383 -2.318,-2.38 h -15.595 c -0.877,0 -1.587,0.2505 -2.13,0.7515 -0.501,0.5011 -0.751,1.1483 -0.751,1.9417 0,0.7516 0.188,1.3361 0.564,1.7537 0.375,0.4175 0.876,0.6263 1.503,0.6263 l 5.198,-0.1253 z m 30.96,-18.1009 c -0.585,0 -1.149,0.1879 -1.692,0.5637 -0.501,0.3341 -0.835,0.7098 -1.002,1.1274 -0.083,0.1253 -0.313,0.7307 -0.689,1.8163 l -0.501,1.6285 c -1.628,4.5513 -4.551,6.827 -8.768,6.827 -1.462,0 -2.777,-0.8351 -3.946,-2.5053 -1.169,-1.712 -1.775,-3.6119 -1.816,-5.6996 -0.042,-0.5011 -0.293,-0.8978 -0.752,-1.19 -0.459,-0.2923 -1.023,-0.4385 -1.691,-0.4385 -0.585,0 -1.107,0.2714 -1.566,0.8143 -0.459,0.501 -0.689,1.0647 -0.689,1.691 v 12.3387 l -0.188,11.587 c 0,1.2109 0.564,1.8164 1.691,1.8164 1.921,0 2.902,-0.8769 2.944,-2.6306 0.084,-1.7537 0.125,-6.138 0.125,-13.1529 1.295,1.2944 3.153,1.9417 5.575,1.9417 2.38,0 4.279,-0.3758 5.699,-1.1274 1.462,-0.7516 2.965,-2.0669 4.51,-3.9459 0,3.2151 0.021,5.5534 0.062,7.0149 0.084,2.8393 0.126,6.1171 0.126,9.8333 0,1.3779 0.522,2.0669 1.565,2.0669 1.086,0 1.838,-0.2714 2.255,-0.8142 0.501,-0.5846 0.752,-1.1901 0.752,-1.8164 0,-9.896 -0.063,-18.5602 -0.188,-25.9926 0,-1.1691 -0.606,-1.7537 -1.816,-1.7537 z m 11.115,28.6858 c 0.209,-1.9207 0.919,-5.0941 2.129,-9.5202 2.255,0.5846 5.199,0.8769 8.832,0.8769 l 2.192,8.5807 c 0.292,1.1691 1.127,1.7537 2.505,1.7537 0.543,0 1.002,-0.167 1.378,-0.5011 0.376,-0.334 0.564,-0.7516 0.564,-1.2526 -1.128,-4.8854 -2.088,-8.7269 -2.881,-11.5245 -0.835,-2.9646 -1.942,-5.9501 -3.32,-8.9564 -1.378,-2.9646 -2.276,-4.781 -2.693,-5.4491 -0.501,-0.7933 -1.086,-1.19 -1.754,-1.19 -1.294,0 -2.589,1.1483 -3.883,3.4448 -1.42,2.4636 -2.631,5.3447 -3.633,8.6433 -2.422,7.5159 -3.632,12.5266 -3.632,15.0319 0,1.0856 0.647,1.6284 1.941,1.6284 1.336,0 2.088,-0.5219 2.255,-1.5658 z m 6.764,-21.4204 c 1.211,2.5471 2.255,5.4073 3.132,8.5807 -2.505,0 -4.677,-0.2505 -6.514,-0.7516 0.877,-2.9229 2.004,-5.5326 3.382,-7.8291 z m 24.015,-5.8248 c -4.76,0 -7.181,0.8768 -7.265,2.6305 v 23.5499 c 0,0.9604 0.188,1.6702 0.564,2.1296 0.376,0.4175 1.106,0.6263 2.192,0.6263 1.127,0 1.733,-0.4802 1.816,-1.4406 0.084,-1.6702 0.126,-3.1107 0.126,-4.3216 0,-1.9208 -0.063,-4.1964 -0.188,-6.827 1.044,0.167 2.129,0.2505 3.257,0.2505 2.63,0 4.718,-0.5845 6.263,-1.7537 2.129,-1.6284 3.194,-4.1546 3.194,-7.5785 0,-2.2131 -0.919,-3.9668 -2.756,-5.2612 -1.795,-1.3361 -4.196,-2.0042 -7.203,-2.0042 z m -2.881,4.4469 c 1.086,-0.167 1.9,-0.2505 2.443,-0.2505 1.002,0 2.067,0.1461 3.194,0.4384 1.921,0.5011 2.923,1.2944 3.007,2.38 v 0.5637 c 0,1.7955 -0.606,3.0482 -1.817,3.758 -0.876,0.5011 -2.192,0.7516 -3.946,0.7516 -1.085,0 -2.087,-0.0627 -3.006,-0.1879 V 24.702 c 0,-2.213 0.042,-3.8206 0.125,-4.8227 z m 37.713,-0.5011 c 0,-1.2109 -0.773,-2.1712 -2.318,-2.8811 -1.545,-0.7516 -3.737,-1.1274 -6.576,-1.1274 -2.923,0 -5.366,0.7099 -7.328,2.1295 -2.004,1.378 -3.007,3.0482 -3.007,5.0107 0,1.9207 0.543,3.4239 1.629,4.5095 1.002,1.0021 2.296,1.7329 3.883,2.1922 l 2.317,0.5637 c 1.754,0.3758 3.132,0.7516 4.134,1.1273 1.044,0.3341 1.921,0.8352 2.631,1.5032 0.71,0.6681 1.065,1.5659 1.065,2.6932 0,1.4197 -0.501,2.568 -1.504,3.4448 -0.96,0.8769 -2.317,1.3153 -4.071,1.3153 -1.044,0 -3.507,-0.7724 -7.39,-2.3174 -0.251,-0.0835 -0.439,-0.1252 -0.564,-0.1252 -0.543,0 -1.023,0.2505 -1.441,0.7515 -0.417,0.4594 -0.626,0.9813 -0.626,1.5659 0,1.2944 0.981,2.38 2.944,3.2569 1.962,0.8768 4.301,1.3153 7.015,1.3153 2.755,0 5.115,-0.7308 7.077,-2.1922 2.004,-1.5032 3.006,-3.7788 3.006,-6.827 0,-1.2944 -0.167,-2.4009 -0.501,-3.3195 -0.292,-0.9604 -0.626,-1.6076 -1.002,-1.9416 -0.417,-0.4176 -0.939,-0.8351 -1.566,-1.2527 -0.626,-0.501 -2.066,-1.0438 -4.321,-1.6284 -2.297,-0.5846 -4.176,-1.2318 -5.637,-1.9416 -1.587,-0.7516 -2.38,-1.6076 -2.38,-2.568 0,-0.9603 0.647,-1.7537 1.941,-2.38 1.295,-0.6681 2.548,-1.0021 3.758,-1.0021 1.295,0 2.631,0.334 4.009,1.0021 1.461,0.6681 2.526,1.0021 3.194,1.0021 0.376,0 0.731,-0.167 1.065,-0.5011 0.376,-0.3757 0.564,-0.8351 0.564,-1.3779 z m 13.615,21.2325 c -0.125,-1.1274 -0.522,-2.0251 -1.19,-2.6932 -0.668,-0.7098 -1.461,-1.0647 -2.38,-1.0647 -0.835,0 -1.586,0.501 -2.254,1.5031 -0.669,0.9604 -1.003,1.9625 -1.003,3.0064 0,0.9604 0.334,1.6911 1.003,2.1922 0.668,0.501 1.482,0.7516 2.442,0.7516 0.877,0 1.65,-0.3758 2.318,-1.1274 0.709,-0.7934 1.064,-1.6494 1.064,-2.568 z M 363.485,30.339 c 0.918,0 1.607,0 2.066,0 0.46,-0.0418 0.794,-0.0627 1.003,-0.0627 0.501,-0.0835 0.96,-0.3549 1.377,-0.8142 0.418,-0.4593 0.627,-0.9395 0.627,-1.4406 0,-1.0021 -0.647,-1.5867 -1.942,-1.7537 -5.303,0 -8.497,-0.0208 -9.583,-0.0626 -0.041,-0.2923 -0.062,-2.4009 -0.062,-6.3259 1.586,0.1253 3.131,0.1879 4.635,0.1879 4.133,0 6.743,-0.2923 7.829,-0.8769 0.501,-0.334 0.751,-0.8977 0.751,-1.6911 0,-1.0438 -0.668,-1.6702 -2.004,-1.8789 h -0.063 l -10.96,-0.1879 h -1.754 c -1.879,0.0417 -2.819,0.8351 -2.819,2.38 0,2.6723 0.063,5.637 0.188,8.8939 -0.459,0.4593 -0.689,0.9603 -0.689,1.5031 0,0.6264 0.272,1.0857 0.815,1.378 v 10.397 c 0,1.3362 0.125,2.4009 0.375,3.1943 0.251,0.7933 0.898,1.19 1.942,1.19 l 12.276,-0.1253 c 1.628,0 2.443,-0.8768 2.443,-2.6306 0,-0.9186 -0.606,-1.4405 -1.817,-1.5658 l -10.835,0.1879 c 0.042,-0.0417 0.063,-0.6263 0.063,-1.7537 l -0.126,-8.2049 z m 30.306,-12.3387 c 0.501,2.3801 0.752,5.8875 0.752,10.5223 0,7.7665 -2.276,11.6497 -6.827,11.6497 -2.046,0 -3.737,-1.1692 -5.073,-3.5074 -1.295,-2.3383 -2.067,-5.1986 -2.318,-8.5807 -0.083,-1.6702 -0.125,-3.0481 -0.125,-4.1338 0,-2.2965 0.105,-4.426 0.313,-6.3885 0.042,-0.5428 -0.104,-0.9813 -0.438,-1.3153 -0.334,-0.334 -0.773,-0.5011 -1.315,-0.5011 -0.543,0 -1.107,0.2088 -1.692,0.6264 -0.584,0.3758 -0.897,0.8351 -0.939,1.3779 -0.209,2.213 -0.313,4.1964 -0.313,5.9501 0,4.5095 0.543,8.6433 1.628,12.4013 0.752,2.547 2.005,4.5722 3.758,6.0753 1.796,1.4615 3.967,2.1922 6.514,2.1922 3.591,0 6.242,-0.9395 7.954,-2.8185 1.754,-1.9207 2.777,-4.9062 3.069,-8.9565 0.126,-1.1274 0.188,-2.6305 0.188,-4.5095 0,-3.3404 -0.208,-7.0358 -0.626,-11.086 -0.042,-0.4593 -0.271,-0.8351 -0.689,-1.1274 -0.376,-0.2923 -0.856,-0.4384 -1.441,-0.4384 -0.626,0 -1.19,0.1879 -1.691,0.5637 -0.501,0.4175 -0.751,0.8977 -0.751,1.4405 z"
     fill="#000000"
     id="path2" />
  <path
     d="m 1325.87,13.6231 c -0.59,0 -1.15,0.1879 -1.69,0.5637 -0.5,0.3341 -0.84,0.7099 -1.01,1.1274 -0.08,0.1253 -0.31,0.7307 -0.68,1.8164 l -0.51,1.6284 c -1.62,4.5513 -4.55,6.827 -8.76,6.827 -1.47,0 -2.78,-0.8351 -3.95,-2.5053 -1.17,-1.712 -1.77,-3.6118 -1.82,-5.6996 -0.04,-0.5011 -0.29,-0.8977 -0.75,-1.19 -0.46,-0.2923 -1.02,-0.4385 -1.69,-0.4385 -0.58,0 -1.11,0.2715 -1.57,0.8143 -0.45,0.501 -0.68,1.0647 -0.68,1.6911 v 12.3386 l -0.19,11.5871 c 0,1.2109 0.56,1.8163 1.69,1.8163 1.92,0 2.9,-0.8769 2.94,-2.6306 0.09,-1.7537 0.13,-6.138 0.13,-13.1528 1.29,1.2944 3.15,1.9416 5.57,1.9416 2.38,0 4.28,-0.3758 5.7,-1.1274 1.46,-0.7516 2.97,-2.0669 4.51,-3.9459 0,3.2152 0.02,5.5535 0.06,7.0149 0.09,2.8393 0.13,6.1171 0.13,9.8333 0,1.3779 0.52,2.0669 1.57,2.0669 1.08,0 1.83,-0.2714 2.25,-0.8142 0.5,-0.5846 0.75,-1.19 0.75,-1.8164 0,-9.8959 -0.06,-18.5601 -0.19,-25.9926 0,-1.1691 -0.6,-1.7537 -1.81,-1.7537 z m 11.11,28.6858 c 0.21,-1.9207 0.92,-5.0941 2.13,-9.5202 2.26,0.5846 5.2,0.8769 8.83,0.8769 l 2.2,8.5807 c 0.29,1.1691 1.12,1.7537 2.5,1.7537 0.54,0 1,-0.167 1.38,-0.5011 0.37,-0.334 0.56,-0.7516 0.56,-1.2526 -1.12,-4.8854 -2.09,-8.7268 -2.88,-11.5244 -0.83,-2.9647 -1.94,-5.9501 -3.32,-8.9565 -1.38,-2.9646 -2.27,-4.781 -2.69,-5.4491 -0.5,-0.7933 -1.09,-1.19 -1.76,-1.19 -1.29,0 -2.58,1.1483 -3.88,3.4448 -1.42,2.4636 -2.63,5.3447 -3.63,8.6433 -2.42,7.516 -3.63,12.5266 -3.63,15.0319 0,1.0856 0.64,1.6284 1.94,1.6284 1.33,0 2.09,-0.5219 2.25,-1.5658 z m 6.77,-21.4204 c 1.21,2.5471 2.25,5.4073 3.13,8.5807 -2.51,0 -4.68,-0.2505 -6.52,-0.7516 0.88,-2.9228 2.01,-5.5325 3.39,-7.8291 z m 21.13,20.7315 c -0.12,-3.758 -0.21,-6.2424 -0.25,-7.4533 1.71,1.1691 3.65,2.6932 5.83,4.5722 2.12,1.8789 3.46,3.1733 4,3.8832 0.76,0.9186 1.44,1.3779 2.07,1.3779 0.17,0 0.44,-0.0626 0.82,-0.1879 1,-0.334 1.5,-0.9604 1.5,-1.879 0,-1.2944 -1.02,-2.9437 -3.07,-4.948 -2.13,-2.0042 -4.47,-3.8206 -7.02,-5.449 0.34,-0.0418 1.36,-0.5428 3.07,-1.5032 1.72,-0.9604 2.99,-1.7328 3.82,-2.3174 0.96,-0.7098 1.82,-1.6285 2.57,-2.7558 0.8,-1.1274 1.19,-2.1296 1.19,-3.0064 0,-1.9208 -1.02,-3.5283 -3.07,-4.8227 -2.04,-1.3362 -4.4,-2.0043 -7.07,-2.0043 -2.72,0 -4.87,0.3758 -6.46,1.1274 -1.58,0.7516 -2.38,1.7955 -2.38,3.1316 0,13.8628 0.09,21.6501 0.25,23.362 0,0.8351 0.46,1.2527 1.38,1.2527 0.71,0 1.36,-0.2297 1.94,-0.689 0.59,-0.4593 0.88,-1.0021 0.88,-1.6284 z m -0.25,-13.0276 c 0,-4.4261 0.02,-7.3072 0.06,-8.6434 1.51,-0.3758 3.05,-0.5637 4.64,-0.5637 1.5,0 2.84,0.3132 4.01,0.9395 1.21,0.5846 1.81,1.3988 1.81,2.4427 -0.12,1.1692 -1.56,2.4427 -4.32,3.8206 -2.8,1.3362 -4.86,2.0043 -6.2,2.0043 z m 40.49,-8.1423 c 0.62,0 1.23,-0.2505 1.81,-0.7516 0.59,-0.5428 0.88,-1.0856 0.88,-1.6284 0,-0.6681 -0.38,-1.1692 -1.13,-1.5032 v -0.0627 c -2.34,-0.7933 -4.74,-1.19 -7.2,-1.19 -4.13,0 -7.56,1.2944 -10.27,3.8832 -2.68,2.5471 -4.01,6.0545 -4.01,10.5223 0,3.2987 0.81,6.3886 2.44,9.2697 0.79,1.4614 1.88,2.6514 3.26,3.57 1.38,0.9187 2.77,1.378 4.19,1.378 2.3,0 6.08,-1.1065 11.34,-3.3196 0.96,-0.6263 1.44,-1.3779 1.44,-2.2547 0,-1.0439 -0.56,-1.5659 -1.69,-1.5659 -0.17,0 -1.63,0.4802 -4.38,1.4406 -2.76,0.9604 -4.66,1.4405 -5.7,1.4405 -1.09,0 -2.13,-0.5219 -3.13,-1.5658 -2.05,-2.0042 -3.07,-4.7183 -3.07,-8.1422 0,-6.7644 3.38,-10.1465 10.14,-10.1465 z m 19.67,9.5202 c 0.92,0 1.61,0 2.07,0 0.46,-0.0418 0.79,-0.0627 1,-0.0627 0.5,-0.0835 0.96,-0.3549 1.38,-0.8142 0.42,-0.4593 0.63,-0.9395 0.63,-1.4405 0,-1.0022 -0.65,-1.5867 -1.94,-1.7538 -5.31,0 -8.5,-0.0208 -9.59,-0.0626 -0.04,-0.2923 -0.06,-2.4009 -0.06,-6.3259 1.59,0.1253 3.13,0.1879 4.64,0.1879 4.13,0 6.74,-0.2923 7.82,-0.8769 0.51,-0.334 0.76,-0.8977 0.76,-1.691 0,-1.0439 -0.67,-1.6702 -2.01,-1.879 h -0.06 l -10.96,-0.1879 h -1.75 c -1.88,0.0417 -2.82,0.8351 -2.82,2.38 0,2.6724 0.06,5.637 0.18,8.8939 -0.45,0.4593 -0.68,0.9603 -0.68,1.5032 0,0.6263 0.27,1.0856 0.81,1.3779 v 10.397 c 0,1.3362 0.13,2.4009 0.38,3.1943 0.25,0.7933 0.89,1.19 1.94,1.19 l 12.27,-0.1253 c 1.63,0 2.45,-0.8768 2.45,-2.6305 0,-0.9187 -0.61,-1.4406 -1.82,-1.5659 l -10.84,0.1879 c 0.05,-0.0417 0.07,-0.6263 0.07,-1.7537 l -0.13,-8.2049 z m 19.85,14.0923 c 2.42,0 4.51,-0.1461 6.27,-0.4384 0.87,-0.2088 1.31,-0.8769 1.31,-2.0042 0,-1.4197 -0.69,-2.1296 -2.07,-2.1296 l -9.27,0.5637 c -0.12,-2.5888 -0.18,-4.8018 -0.18,-6.639 0,-1.6702 0.23,-4.6349 0.69,-8.8939 0.41,-3.2986 0.64,-5.7204 0.68,-7.2654 0,-0.6681 -0.25,-1.19 -0.75,-1.5658 -0.5,-0.3758 -1.15,-0.5637 -1.94,-0.5637 -1.59,0 -2.38,0.522 -2.38,1.5658 l -0.44,18.1635 c 0,3.7162 0.13,6.4512 0.38,8.2049 0.12,0.6263 0.71,0.9395 1.75,0.9395 z m 23.73,-28.6858 c -3.97,0 -7.08,1.1066 -9.33,3.3196 -2.22,2.213 -3.32,5.449 -3.32,9.7081 0,4.3007 1.1,7.9752 3.32,11.0233 2.21,3.0064 5.07,4.5096 8.58,4.5096 3.25,0 5.9,-1.5032 7.95,-4.5096 2.09,-3.0481 3.13,-6.6182 3.13,-10.7102 0,-4.092 -0.94,-7.328 -2.82,-9.7081 -1.88,-2.4218 -4.38,-3.6327 -7.51,-3.6327 z m -0.32,23.9884 c -2.46,0 -4.42,-1.1692 -5.88,-3.5075 -1.42,-2.2965 -2.13,-4.8227 -2.13,-7.5785 0,-2.7559 0.67,-4.8645 2,-6.3259 1.34,-1.5032 3.22,-2.2548 5.64,-2.2548 2.38,0 4.05,0.7725 5.01,2.3174 1,1.5032 1.5,3.9668 1.5,7.3907 0,3.3821 -0.83,6.0962 -2.5,8.1422 -1.01,1.2109 -2.22,1.8164 -3.64,1.8164 z m 23.75,-24.3015 c -4.76,0 -7.18,0.8768 -7.26,2.6306 v 23.5499 c 0,0.9603 0.19,1.6702 0.56,2.1295 0.38,0.4175 1.11,0.6263 2.19,0.6263 1.13,0 1.74,-0.4802 1.82,-1.4406 0.08,-1.6702 0.13,-3.1107 0.13,-4.3216 0,-1.9207 -0.07,-4.1964 -0.19,-6.827 1.04,0.167 2.13,0.2506 3.26,0.2506 2.63,0 4.71,-0.5846 6.26,-1.7538 2.13,-1.6284 3.19,-4.1546 3.19,-7.5785 0,-2.213 -0.92,-3.9668 -2.75,-5.2612 -1.8,-1.3361 -4.2,-2.0042 -7.21,-2.0042 z m -2.88,4.4469 c 1.09,-0.167 1.9,-0.2505 2.45,-0.2505 1,0 2.06,0.1461 3.19,0.4384 1.92,0.5011 2.92,1.2944 3.01,2.38 v 0.5637 c 0,1.7955 -0.61,3.0482 -1.82,3.758 -0.88,0.5011 -2.19,0.7516 -3.95,0.7516 -1.08,0 -2.08,-0.0626 -3,-0.1879 v -2.6306 c 0,-2.213 0.04,-3.8206 0.12,-4.8227 z M 1512.1,41.62 c -0.12,-3.758 -0.2,-6.2424 -0.25,-7.4533 1.72,1.1691 3.66,2.6932 5.83,4.5722 2.13,1.8789 3.46,3.1733 4.01,3.8832 0.75,0.9186 1.44,1.3779 2.06,1.3779 0.17,0 0.44,-0.0626 0.82,-0.1879 1,-0.334 1.5,-0.9604 1.5,-1.879 0,-1.2944 -1.02,-2.9437 -3.07,-4.948 -2.13,-2.0042 -4.46,-3.8206 -7.01,-5.449 0.33,-0.0418 1.35,-0.5428 3.07,-1.5032 1.71,-0.9604 2.98,-1.7328 3.82,-2.3174 0.96,-0.7098 1.81,-1.6285 2.57,-2.7558 0.79,-1.1274 1.19,-2.1296 1.19,-3.0064 0,-1.9208 -1.03,-3.5283 -3.07,-4.8227 -2.05,-1.3362 -4.41,-2.0043 -7.08,-2.0043 -2.72,0 -4.87,0.3758 -6.45,1.1274 -1.59,0.7516 -2.38,1.7955 -2.38,3.1316 0,13.8628 0.08,21.6501 0.25,23.362 0,0.8351 0.46,1.2527 1.38,1.2527 0.71,0 1.35,-0.2297 1.94,-0.689 0.58,-0.4593 0.87,-1.0021 0.87,-1.6284 z m -0.25,-13.0276 c 0,-4.4261 0.03,-7.3072 0.07,-8.6434 1.5,-0.3758 3.04,-0.5637 4.63,-0.5637 1.5,0 2.84,0.3132 4.01,0.9395 1.21,0.5846 1.82,1.3988 1.82,2.4427 -0.13,1.1692 -1.57,2.4427 -4.33,3.8206 -2.79,1.3362 -4.86,2.0043 -6.2,2.0043 z m 25.02,13.7165 c 0.21,-1.9207 0.92,-5.0941 2.13,-9.5202 2.25,0.5846 5.2,0.8769 8.83,0.8769 l 2.19,8.5807 c 0.29,1.1691 1.13,1.7537 2.51,1.7537 0.54,0 1,-0.167 1.38,-0.5011 0.37,-0.334 0.56,-0.7516 0.56,-1.2526 -1.13,-4.8854 -2.09,-8.7268 -2.88,-11.5244 -0.84,-2.9647 -1.94,-5.9501 -3.32,-8.9565 -1.38,-2.9646 -2.28,-4.781 -2.69,-5.4491 -0.51,-0.7933 -1.09,-1.19 -1.76,-1.19 -1.29,0 -2.59,1.1483 -3.88,3.4448 -1.42,2.4636 -2.63,5.3447 -3.63,8.6433 -2.43,7.516 -3.64,12.5266 -3.64,15.0319 0,1.0856 0.65,1.6284 1.94,1.6284 1.34,0 2.09,-0.5219 2.26,-1.5658 z m 6.76,-21.4204 c 1.21,2.5471 2.26,5.4073 3.14,8.5807 -2.51,0 -4.68,-0.2505 -6.52,-0.7516 0.88,-2.9228 2.01,-5.5325 3.38,-7.8291 z m 33.1,-1.879 c 3.93,0 5.89,-0.8559 5.89,-2.5679 0,-0.8351 -0.57,-1.3779 -1.69,-1.6284 l -19.54,0.6263 c -0.59,0.0417 -1.13,0.3131 -1.63,0.8142 -0.46,0.5011 -0.69,1.0021 -0.69,1.5032 0,1.0856 0.65,1.6284 1.94,1.6284 2.3,0 4.84,-0.1043 7.64,-0.3131 -0.25,2.8811 -0.38,6.6182 -0.38,11.2112 0,3.8415 0.07,7.8291 0.19,11.9629 0,1.1691 0.55,1.7537 1.63,1.7537 0.63,0 1.19,-0.1879 1.69,-0.5637 0.55,-0.4175 0.82,-0.9186 0.82,-1.5032 0,-1.5032 -0.02,-2.6723 -0.07,-3.5074 l -0.06,-4.6975 0.13,-14.8439 z m 21.59,10.9608 c 0.92,0 1.61,0 2.07,0 0.46,-0.0418 0.79,-0.0627 1,-0.0627 0.5,-0.0835 0.96,-0.3549 1.38,-0.8142 0.41,-0.4593 0.62,-0.9395 0.62,-1.4405 0,-1.0022 -0.64,-1.5867 -1.94,-1.7538 -5.3,0 -8.5,-0.0208 -9.58,-0.0626 -0.04,-0.2923 -0.06,-2.4009 -0.06,-6.3259 1.58,0.1253 3.13,0.1879 4.63,0.1879 4.13,0 6.74,-0.2923 7.83,-0.8769 0.5,-0.334 0.75,-0.8977 0.75,-1.691 0,-1.0439 -0.67,-1.6702 -2,-1.879 h -0.07 l -10.96,-0.1879 h -1.75 c -1.88,0.0417 -2.82,0.8351 -2.82,2.38 0,2.6724 0.06,5.637 0.19,8.8939 -0.46,0.4593 -0.69,0.9603 -0.69,1.5032 0,0.6263 0.27,1.0856 0.81,1.3779 v 10.397 c 0,1.3362 0.13,2.4009 0.38,3.1943 0.25,0.7933 0.9,1.19 1.94,1.19 l 12.28,-0.1253 c 1.63,0 2.44,-0.8768 2.44,-2.6305 0,-0.9187 -0.61,-1.4406 -1.82,-1.5659 l -10.83,0.1879 c 0.04,-0.0417 0.06,-0.6263 0.06,-1.7537 l -0.12,-8.2049 z M 1630,19.0095 c 0,-1.2109 -0.77,-2.1712 -2.31,-2.8811 -1.55,-0.7516 -3.74,-1.1273 -6.58,-1.1273 -2.92,0 -5.37,0.7098 -7.33,2.1295 -2,1.3779 -3,3.0481 -3,5.0106 0,1.9207 0.54,3.4239 1.62,4.5095 1.01,1.0022 2.3,1.7329 3.89,2.1922 l 2.31,0.5637 c 1.76,0.3758 3.14,0.7516 4.14,1.1274 1.04,0.334 1.92,0.8351 2.63,1.5032 0.71,0.668 1.06,1.5658 1.06,2.6932 0,1.4196 -0.5,2.5679 -1.5,3.4448 -0.96,0.8768 -2.32,1.3152 -4.07,1.3152 -1.04,0 -3.51,-0.7724 -7.39,-2.3174 -0.25,-0.0835 -0.44,-0.1252 -0.56,-0.1252 -0.55,0 -1.03,0.2505 -1.45,0.7516 -0.41,0.4593 -0.62,0.9812 -0.62,1.5658 0,1.2944 0.98,2.38 2.94,3.2569 1.96,0.8768 4.3,1.3153 7.02,1.3153 2.75,0 5.11,-0.7307 7.07,-2.1922 2.01,-1.5032 3.01,-3.7788 3.01,-6.8269 0,-1.2945 -0.17,-2.401 -0.5,-3.3196 -0.29,-0.9603 -0.63,-1.6076 -1,-1.9416 -0.42,-0.4175 -0.94,-0.8351 -1.57,-1.2526 -0.62,-0.5011 -2.07,-1.0439 -4.32,-1.6285 -2.3,-0.5846 -4.18,-1.2318 -5.64,-1.9416 -1.58,-0.7516 -2.38,-1.6076 -2.38,-2.568 0,-0.9603 0.65,-1.7537 1.94,-2.38 1.3,-0.6681 2.55,-1.0021 3.76,-1.0021 1.3,0 2.63,0.334 4.01,1.0021 1.46,0.6681 2.53,1.0021 3.2,1.0021 0.37,0 0.73,-0.167 1.06,-0.501 0.38,-0.3758 0.56,-0.8351 0.56,-1.378 z m 6.1,25.8674 c 0,1.2109 0.57,1.8163 1.69,1.8163 0.84,0 1.61,-0.4802 2.32,-1.4405 2.38,-5.47 5.43,-13.0068 9.15,-22.6105 4.21,-10.6893 6.74,-17.0152 7.58,-18.9777 1.04,-2.38 1.56,-3.8206 1.56,-4.3216 0,-0.5011 -0.17,-0.8978 -0.5,-1.19 -0.33,-0.2923 -0.75,-0.4385 -1.25,-0.4385 -1.13,0 -1.99,0.5428 -2.57,1.6285 -3.26,7.8917 -6.22,15.3659 -8.89,22.4225 -2.76,7.3071 -5.72,14.7187 -8.9,22.2346 -0.12,0.4593 -0.19,0.7516 -0.19,0.8769 z m 33.82,-29.8132 c -4.76,0 -7.19,0.8768 -7.27,2.6306 v 23.5499 c 0,0.9603 0.19,1.6702 0.56,2.1295 0.38,0.4175 1.11,0.6263 2.2,0.6263 1.12,0 1.73,-0.4802 1.81,-1.4406 0.09,-1.6702 0.13,-3.1107 0.13,-4.3216 0,-1.9207 -0.06,-4.1964 -0.19,-6.827 1.04,0.167 2.13,0.2506 3.26,0.2506 2.63,0 4.72,-0.5846 6.26,-1.7538 2.13,-1.6284 3.19,-4.1546 3.19,-7.5785 0,-2.213 -0.91,-3.9668 -2.75,-5.2612 -1.8,-1.3361 -4.2,-2.0042 -7.2,-2.0042 z m -2.88,4.4469 c 1.08,-0.167 1.89,-0.2505 2.44,-0.2505 1,0 2.06,0.1461 3.19,0.4384 1.92,0.5011 2.92,1.2944 3.01,2.38 v 0.5637 c 0,1.7955 -0.61,3.0482 -1.82,3.758 -0.87,0.5011 -2.19,0.7516 -3.94,0.7516 -1.09,0 -2.09,-0.0626 -3.01,-0.1879 v -2.6306 c 0,-2.213 0.04,-3.8206 0.13,-4.8227 z m 23.18,22.1094 c -0.13,-3.758 -0.21,-6.2424 -0.25,-7.4533 1.71,1.1691 3.65,2.6932 5.82,4.5722 2.13,1.8789 3.47,3.1733 4.01,3.8832 0.75,0.9186 1.44,1.3779 2.07,1.3779 0.16,0 0.43,-0.0626 0.81,-0.1879 1,-0.334 1.5,-0.9604 1.5,-1.879 0,-1.2944 -1.02,-2.9437 -3.07,-4.948 -2.12,-2.0042 -4.46,-3.8206 -7.01,-5.449 0.33,-0.0418 1.36,-0.5428 3.07,-1.5032 1.71,-0.9604 2.98,-1.7328 3.82,-2.3174 0.96,-0.7098 1.82,-1.6285 2.57,-2.7558 0.79,-1.1274 1.19,-2.1296 1.19,-3.0064 0,-1.9208 -1.03,-3.5283 -3.07,-4.8227 -2.05,-1.3362 -4.41,-2.0043 -7.08,-2.0043 -2.71,0 -4.86,0.3758 -6.45,1.1274 -1.59,0.7516 -2.38,1.7955 -2.38,3.1316 0,13.8628 0.08,21.6501 0.25,23.362 0,0.8351 0.46,1.2527 1.38,1.2527 0.71,0 1.36,-0.2297 1.94,-0.689 0.58,-0.4593 0.88,-1.0021 0.88,-1.6284 z m -0.25,-13.0276 c 0,-4.4261 0.02,-7.3072 0.06,-8.6434 1.5,-0.3758 3.05,-0.5637 4.63,-0.5637 1.51,0 2.84,0.3132 4.01,0.9395 1.21,0.5846 1.82,1.3988 1.82,2.4427 -0.13,1.1692 -1.57,2.4427 -4.32,3.8206 -2.8,1.3362 -4.87,2.0043 -6.2,2.0043 z m 31.96,1.3779 c 0.92,0 1.61,0 2.07,0 0.46,-0.0418 0.79,-0.0627 1,-0.0627 0.5,-0.0835 0.96,-0.3549 1.38,-0.8142 0.42,-0.4593 0.63,-0.9395 0.63,-1.4405 0,-1.0022 -0.65,-1.5867 -1.95,-1.7538 -5.3,0 -8.49,-0.0208 -9.58,-0.0626 -0.04,-0.2923 -0.06,-2.4009 -0.06,-6.3259 1.59,0.1253 3.13,0.1879 4.63,0.1879 4.14,0 6.75,-0.2923 7.83,-0.8769 0.5,-0.334 0.75,-0.8977 0.75,-1.691 0,-1.0439 -0.66,-1.6702 -2,-1.879 h -0.06 l -10.96,-0.1879 h -1.76 c -1.88,0.0417 -2.81,0.8351 -2.81,2.38 0,2.6724 0.06,5.637 0.18,8.8939 -0.46,0.4593 -0.69,0.9603 -0.69,1.5032 0,0.6263 0.28,1.0856 0.82,1.3779 v 10.397 c 0,1.3362 0.12,2.4009 0.37,3.1943 0.25,0.7933 0.9,1.19 1.95,1.19 l 12.27,-0.1253 c 1.63,0 2.44,-0.8768 2.44,-2.6305 0,-0.9187 -0.6,-1.4406 -1.81,-1.5659 l -10.84,0.1879 c 0.04,-0.0417 0.07,-0.6263 0.07,-1.7537 l -0.13,-8.2049 z m 29.12,-10.9608 c 3.92,0 5.89,-0.8559 5.89,-2.5679 0,-0.8351 -0.57,-1.3779 -1.69,-1.6284 l -19.55,0.6263 c -0.58,0.0417 -1.12,0.3131 -1.62,0.8142 -0.46,0.5011 -0.69,1.0021 -0.69,1.5032 0,1.0856 0.64,1.6284 1.94,1.6284 2.3,0 4.84,-0.1043 7.64,-0.3131 -0.25,2.8811 -0.38,6.6182 -0.38,11.2112 0,3.8415 0.07,7.8291 0.19,11.9629 0,1.1691 0.55,1.7537 1.63,1.7537 0.63,0 1.19,-0.1879 1.69,-0.5637 0.54,-0.4175 0.82,-0.9186 0.82,-1.5032 0,-1.5032 -0.02,-2.6723 -0.07,-3.5074 l -0.06,-4.6975 0.13,-14.8439 z m 26.91,0 c 3.93,0 5.89,-0.8559 5.89,-2.5679 0,-0.8351 -0.56,-1.3779 -1.69,-1.6284 l -19.54,0.6263 c -0.59,0.0417 -1.13,0.3131 -1.63,0.8142 -0.46,0.5011 -0.69,1.0021 -0.69,1.5032 0,1.0856 0.65,1.6284 1.94,1.6284 2.3,0 4.85,-0.1043 7.64,-0.3131 -0.25,2.8811 -0.37,6.6182 -0.37,11.2112 0,3.8415 0.06,7.8291 0.18,11.9629 0,1.1691 0.55,1.7537 1.63,1.7537 0.63,0 1.19,-0.1879 1.69,-0.5637 0.55,-0.4175 0.82,-0.9186 0.82,-1.5032 0,-1.5032 -0.02,-2.6723 -0.06,-3.5074 l -0.07,-4.6975 0.13,-14.8439 z m 27.1,-4.1337 c -0.21,0 -0.48,0.1044 -0.81,0.3132 -0.63,0.334 -1.59,1.5031 -2.88,3.5074 l -1.94,3.1316 -2.38,3.6327 c -0.63,-0.9186 -1.44,-2.2548 -2.45,-4.0085 -2.46,-4.2172 -3.98,-6.3259 -4.57,-6.3259 -0.83,0 -1.54,0.4384 -2.13,1.3153 -0.25,0.3758 -0.37,0.7098 -0.37,1.0021 0,0.2506 0.06,0.4802 0.18,0.689 2.88,5.2611 5.22,9.0609 7.02,11.3991 0.12,1.1274 0.19,2.2339 0.19,3.3196 l -0.07,6.7643 c 0,2.2965 0.23,3.6745 0.69,4.1338 0.17,0.167 0.44,0.2505 0.82,0.2505 1.29,0 2.06,-0.5428 2.31,-1.6285 0.25,-1.0856 0.38,-3.5074 0.38,-7.2653 v -5.4491 c 0.58,-1.0021 1.23,-1.9625 1.94,-2.8811 l 0.88,-1.3153 1.5,-2.2548 1.63,-2.5053 c 1.13,-1.8372 1.69,-3.2777 1.69,-4.3216 0,-0.8769 -0.54,-1.3779 -1.63,-1.5032 z m 30.31,-1.2527 c -0.58,0 -1.15,0.1879 -1.69,0.5637 -0.5,0.3341 -0.84,0.7099 -1,1.1274 -0.09,0.1253 -0.32,0.7307 -0.69,1.8164 l -0.5,1.6284 c -1.63,4.5513 -4.55,6.827 -8.77,6.827 -1.46,0 -2.78,-0.8351 -3.95,-2.5053 -1.17,-1.712 -1.77,-3.6118 -1.81,-5.6996 -0.05,-0.5011 -0.3,-0.8977 -0.76,-1.19 -0.46,-0.2923 -1.02,-0.4385 -1.69,-0.4385 -0.58,0 -1.1,0.2715 -1.56,0.8143 -0.46,0.501 -0.69,1.0647 -0.69,1.6911 v 12.3386 l -0.19,11.5871 c 0,1.2109 0.56,1.8163 1.69,1.8163 1.92,0 2.9,-0.8769 2.95,-2.6306 0.08,-1.7537 0.12,-6.138 0.12,-13.1528 1.29,1.2944 3.15,1.9416 5.57,1.9416 2.38,0 4.28,-0.3758 5.7,-1.1274 1.47,-0.7516 2.97,-2.0669 4.51,-3.9459 0,3.2152 0.02,5.5535 0.07,7.0149 0.08,2.8393 0.12,6.1171 0.12,9.8333 0,1.3779 0.52,2.0669 1.57,2.0669 1.08,0 1.83,-0.2714 2.25,-0.8142 0.5,-0.5846 0.75,-1.19 0.75,-1.8164 0,-9.8959 -0.06,-18.5601 -0.18,-25.9926 0,-1.1691 -0.61,-1.7537 -1.82,-1.7537 z m 11.12,28.6858 c 0.2,-1.9207 0.91,-5.0941 2.12,-9.5202 2.26,0.5846 5.2,0.8769 8.84,0.8769 l 2.19,8.5807 c 0.29,1.1691 1.13,1.7537 2.5,1.7537 0.55,0 1.01,-0.167 1.38,-0.5011 0.38,-0.334 0.56,-0.7516 0.56,-1.2526 -1.12,-4.8854 -2.08,-8.7268 -2.88,-11.5244 -0.83,-2.9647 -1.94,-5.9501 -3.32,-8.9565 -1.37,-2.9646 -2.27,-4.781 -2.69,-5.4491 -0.5,-0.7933 -1.08,-1.19 -1.75,-1.19 -1.3,0 -2.59,1.1483 -3.89,3.4448 -1.42,2.4636 -2.63,5.3447 -3.63,8.6433 -2.42,7.516 -3.63,12.5266 -3.63,15.0319 0,1.0856 0.65,1.6284 1.94,1.6284 1.34,0 2.09,-0.5219 2.26,-1.5658 z m 6.76,-21.4204 c 1.21,2.5471 2.25,5.4073 3.13,8.5807 -2.5,0 -4.68,-0.2505 -6.51,-0.7516 0.87,-2.9228 2,-5.5325 3.38,-7.8291 z m 24.01,-5.8248 c -4.76,0 -7.18,0.8768 -7.26,2.6306 v 23.5499 c 0,0.9603 0.19,1.6702 0.56,2.1295 0.38,0.4175 1.11,0.6263 2.2,0.6263 1.12,0 1.73,-0.4802 1.81,-1.4406 0.08,-1.6702 0.13,-3.1107 0.13,-4.3216 0,-1.9207 -0.07,-4.1964 -0.19,-6.827 1.04,0.167 2.13,0.2506 3.26,0.2506 2.63,0 4.71,-0.5846 6.26,-1.7538 2.13,-1.6284 3.19,-4.1546 3.19,-7.5785 0,-2.213 -0.92,-3.9668 -2.75,-5.2612 -1.8,-1.3361 -4.2,-2.0042 -7.21,-2.0042 z m -2.88,4.4469 c 1.09,-0.167 1.9,-0.2505 2.45,-0.2505 1,0 2.06,0.1461 3.19,0.4384 1.92,0.5011 2.92,1.2944 3.01,2.38 v 0.5637 c 0,1.7955 -0.61,3.0482 -1.82,3.758 -0.88,0.5011 -2.19,0.7516 -3.95,0.7516 -1.08,0 -2.08,-0.0626 -3,-0.1879 v -2.6306 c 0,-2.213 0.04,-3.8206 0.12,-4.8227 z m 37.72,-0.5011 c 0,-1.2109 -0.78,-2.1712 -2.32,-2.8811 -1.55,-0.7516 -3.74,-1.1273 -6.58,-1.1273 -2.92,0 -5.36,0.7098 -7.33,2.1295 -2,1.3779 -3,3.0481 -3,5.0106 0,1.9207 0.54,3.4239 1.63,4.5095 1,1.0022 2.29,1.7329 3.88,2.1922 l 2.32,0.5637 c 1.75,0.3758 3.13,0.7516 4.13,1.1274 1.04,0.334 1.92,0.8351 2.63,1.5032 0.71,0.668 1.07,1.5658 1.07,2.6932 0,1.4196 -0.51,2.5679 -1.51,3.4448 -0.96,0.8768 -2.31,1.3152 -4.07,1.3152 -1.04,0 -3.51,-0.7724 -7.39,-2.3174 -0.25,-0.0835 -0.44,-0.1252 -0.56,-0.1252 -0.55,0 -1.03,0.2505 -1.44,0.7516 -0.42,0.4593 -0.63,0.9812 -0.63,1.5658 0,1.2944 0.98,2.38 2.94,3.2569 1.97,0.8768 4.3,1.3153 7.02,1.3153 2.75,0 5.11,-0.7307 7.08,-2.1922 2,-1.5032 3,-3.7788 3,-6.8269 0,-1.2945 -0.16,-2.401 -0.5,-3.3196 -0.29,-0.9603 -0.62,-1.6076 -1,-1.9416 -0.42,-0.4175 -0.94,-0.8351 -1.57,-1.2526 -0.62,-0.5011 -2.06,-1.0439 -4.32,-1.6285 -2.29,-0.5846 -4.17,-1.2318 -5.63,-1.9416 -1.59,-0.7516 -2.38,-1.6076 -2.38,-2.568 0,-0.9603 0.64,-1.7537 1.94,-2.38 1.29,-0.6681 2.54,-1.0021 3.75,-1.0021 1.3,0 2.64,0.334 4.01,1.0021 1.46,0.6681 2.53,1.0021 3.2,1.0021 0.37,0 0.73,-0.167 1.06,-0.501 0.38,-0.3758 0.57,-0.8351 0.57,-1.378 z"
     fill="#000000"
     id="path4" />
  <path
     d="m 608.427,44.995 c 0.209,1.0856 0.856,1.6285 1.942,1.6285 0.71,0 1.336,-0.2506 1.879,-0.7516 0.543,-0.5011 0.814,-1.0857 0.814,-1.7537 1.169,0.167 2.172,0.2505 3.007,0.2505 3.716,0 6.618,-0.8769 8.706,-2.6306 2.129,-1.7955 3.194,-4.3634 3.194,-7.7038 0,-4.5513 -2.004,-8.7686 -6.013,-12.6518 -3.925,-3.8833 -8.059,-5.8249 -12.401,-5.8249 -1.587,0 -2.547,0.7934 -2.881,2.3801 -0.209,1.0439 -0.313,2.38 -0.313,4.0085 0,1.0438 0.083,3.4239 0.25,7.1401 0.209,4.7183 0.501,8.4345 0.877,11.1486 -0.292,0.4176 -0.438,0.7934 -0.438,1.1274 0,0.5011 0.271,0.9604 0.814,1.3779 z m 2.631,-24.8025 c 3.841,1.5031 6.869,3.6327 9.082,6.3885 2.213,2.7558 3.319,5.8666 3.319,9.3323 0,2.7558 -2.442,4.1337 -7.328,4.1337 -2.171,0 -3.465,-0.0417 -3.883,-0.1252 -0.376,-2.6724 -0.689,-5.9501 -0.939,-9.8334 -0.209,-4.3008 -0.314,-6.8061 -0.314,-7.5159 0,-1.2944 0.021,-2.0878 0.063,-2.38 z m 27.21,22.4851 c 0.208,-1.9207 0.918,-5.0941 2.129,-9.5202 2.255,0.5846 5.199,0.8769 8.831,0.8769 l 2.192,8.5807 c 0.293,1.1691 1.128,1.7537 2.506,1.7537 0.543,0 1.002,-0.167 1.378,-0.5011 0.375,-0.334 0.563,-0.7516 0.563,-1.2526 -1.127,-4.8854 -2.087,-8.7269 -2.881,-11.5245 -0.835,-2.9646 -1.941,-5.9501 -3.319,-8.9564 -1.378,-2.9646 -2.276,-4.781 -2.694,-5.4491 -0.501,-0.7933 -1.085,-1.19 -1.753,-1.19 -1.295,0 -2.589,1.1483 -3.883,3.4448 -1.42,2.4636 -2.631,5.3447 -3.633,8.6433 -2.422,7.5159 -3.633,12.5266 -3.633,15.0319 0,1.0856 0.647,1.6284 1.942,1.6284 1.336,0 2.087,-0.5219 2.255,-1.5658 z m 6.764,-21.4204 c 1.211,2.5471 2.255,5.4073 3.131,8.5807 -2.505,0 -4.676,-0.2505 -6.513,-0.7516 0.877,-2.9229 2.004,-5.5326 3.382,-7.8291 z m 33.097,-1.879 c 3.925,0 5.887,-0.856 5.887,-2.5679 0,-0.8351 -0.563,-1.3779 -1.691,-1.6285 l -19.541,0.6264 c -0.585,0.0417 -1.128,0.3131 -1.629,0.8142 -0.459,0.5011 -0.689,1.0021 -0.689,1.5032 0,1.0856 0.648,1.6284 1.942,1.6284 2.297,0 4.844,-0.1044 7.641,-0.3131 -0.25,2.8811 -0.376,6.6182 -0.376,11.2112 0,3.8415 0.063,7.8291 0.188,11.9629 0,1.1691 0.543,1.7537 1.629,1.7537 0.626,0 1.19,-0.1879 1.691,-0.5637 0.543,-0.4176 0.814,-0.9186 0.814,-1.5032 0,-1.5032 -0.021,-2.6723 -0.063,-3.5074 l -0.062,-4.6975 0.125,-14.8439 z m 14.636,23.2994 c 0.209,-1.9207 0.919,-5.0941 2.13,-9.5202 2.255,0.5846 5.198,0.8769 8.831,0.8769 l 2.192,8.5807 c 0.292,1.1691 1.128,1.7537 2.505,1.7537 0.543,0 1.003,-0.167 1.378,-0.5011 0.376,-0.334 0.564,-0.7516 0.564,-1.2526 -1.127,-4.8854 -2.088,-8.7269 -2.881,-11.5245 -0.835,-2.9646 -1.942,-5.9501 -3.32,-8.9564 -1.377,-2.9646 -2.275,-4.781 -2.693,-5.4491 -0.501,-0.7933 -1.085,-1.19 -1.753,-1.19 -1.295,0 -2.589,1.1483 -3.884,3.4448 -1.419,2.4636 -2.63,5.3447 -3.632,8.6433 -2.422,7.5159 -3.633,12.5266 -3.633,15.0319 0,1.0856 0.647,1.6284 1.942,1.6284 1.336,0 2.087,-0.5219 2.254,-1.5658 z m 6.765,-21.4204 c 1.211,2.5471 2.254,5.4073 3.131,8.5807 -2.505,0 -4.676,-0.2505 -6.514,-0.7516 0.877,-2.9229 2.005,-5.5326 3.383,-7.8291 z m 24.453,0.6263 c -0.125,-1.1274 -0.543,-2.0251 -1.252,-2.6932 -0.668,-0.7098 -1.462,-1.0647 -2.38,-1.0647 -0.835,0 -1.587,0.501 -2.255,1.5032 -0.626,0.9603 -0.94,1.9625 -0.94,3.0063 0,0.9186 0.334,1.6494 1.002,2.1922 0.669,0.501 1.483,0.7516 2.443,0.7516 0.877,0 1.649,-0.3758 2.318,-1.1274 0.709,-0.7934 1.064,-1.6493 1.064,-2.568 z m -2.756,15.4077 c -2.463,0 -3.695,1.19 -3.695,3.5701 0,1.0438 0.292,1.8789 0.877,2.5053 0.626,0.6263 1.357,0.9395 2.192,0.9395 0.793,0 1.566,-0.3132 2.318,-0.9395 0.709,-0.5429 1.064,-1.2945 1.064,-2.2548 0,-0.6681 -0.167,-1.3362 -0.501,-2.0043 -0.334,-0.7098 -0.668,-1.2109 -1.002,-1.5032 -0.543,-0.2087 -0.96,-0.3131 -1.253,-0.3131 z M 761.619,2.7179 c -5.762,0 -10.001,1.8581 -12.715,5.5743 -2.547,3.424 -3.82,7.8291 -3.82,13.2155 0,3.3822 0.501,6.7226 1.503,10.0213 1.002,3.2986 2.547,6.2424 4.635,8.8312 2.213,2.7141 5.303,4.0711 9.269,4.0711 2.923,-0.167 5.575,-1.3779 7.955,-3.6327 4.426,-4.426 6.639,-10.5014 6.639,-18.2261 0,-7.8082 -2.004,-13.4869 -6.013,-17.0361 -2.046,-1.879 -4.53,-2.8185 -7.453,-2.8185 z m -0.439,5.1985 c 3.048,0 5.241,1.2109 6.577,3.6327 1.378,2.4218 2.067,6.0128 2.067,10.7729 0,6.472 -1.274,11.1486 -3.821,14.0297 -1.42,1.6284 -3.069,2.4427 -4.948,2.4427 -1.837,0 -3.403,-0.5011 -4.697,-1.5032 -2.213,-1.5867 -3.884,-4.3425 -5.011,-8.2675 -0.835,-2.7976 -1.253,-5.5326 -1.253,-8.2049 0,-1.8372 0.209,-3.4866 0.627,-4.948 1.378,-5.3029 4.864,-7.9544 10.459,-7.9544 z m 26.16,7.516 c -4.76,0 -7.182,0.8768 -7.266,2.6305 v 23.5499 c 0,0.9604 0.188,1.6702 0.564,2.1296 0.376,0.4175 1.107,0.6263 2.192,0.6263 1.128,0 1.733,-0.4802 1.817,-1.4406 0.083,-1.6702 0.125,-3.1107 0.125,-4.3216 0,-1.9208 -0.063,-4.1964 -0.188,-6.827 1.044,0.167 2.129,0.2505 3.257,0.2505 2.63,0 4.718,-0.5845 6.263,-1.7537 2.13,-1.6284 3.194,-4.1546 3.194,-7.5785 0,-2.2131 -0.918,-3.9668 -2.756,-5.2612 -1.795,-1.3361 -4.196,-2.0042 -7.202,-2.0042 z m -2.881,4.4469 c 1.085,-0.167 1.899,-0.2505 2.442,-0.2505 1.002,0 2.067,0.1461 3.195,0.4384 1.92,0.5011 2.922,1.2944 3.006,2.38 v 0.5637 c 0,1.7955 -0.606,3.0482 -1.816,3.758 -0.877,0.5011 -2.193,0.7516 -3.946,0.7516 -1.086,0 -2.088,-0.0627 -3.007,-0.1879 V 24.702 c 0,-2.213 0.042,-3.8206 0.126,-4.8227 z m 29.82,10.4597 c 0.919,0 1.608,0 2.067,0 0.459,-0.0418 0.793,-0.0627 1.002,-0.0627 0.501,-0.0835 0.961,-0.3549 1.378,-0.8142 0.418,-0.4593 0.626,-0.9395 0.626,-1.4406 0,-1.0021 -0.647,-1.5867 -1.941,-1.7537 -5.303,0 -8.497,-0.0208 -9.583,-0.0626 -0.042,-0.2923 -0.063,-2.4009 -0.063,-6.3259 1.587,0.1253 3.132,0.1879 4.635,0.1879 4.134,0 6.744,-0.2923 7.829,-0.8769 0.501,-0.334 0.752,-0.8977 0.752,-1.6911 0,-1.0438 -0.668,-1.6702 -2.004,-1.8789 h -0.063 L 807.953,15.4324 H 806.2 c -1.879,0.0417 -2.819,0.8351 -2.819,2.38 0,2.6723 0.063,5.637 0.188,8.8939 -0.459,0.4593 -0.689,0.9603 -0.689,1.5031 0,0.6264 0.271,1.0857 0.814,1.378 v 10.397 c 0,1.3362 0.125,2.4009 0.376,3.1943 0.251,0.7933 0.898,1.19 1.942,1.19 l 12.276,-0.1253 c 1.628,0 2.442,-0.8768 2.442,-2.6306 0,-0.9186 -0.605,-1.4405 -1.816,-1.5658 l -10.836,0.1879 c 0.042,-0.0417 0.063,-0.6263 0.063,-1.7537 l -0.125,-8.2049 z m 17.154,-5.5117 c 3.466,3.925 6.785,8.8938 9.959,14.9066 0.125,0.2087 0.376,0.668 0.751,1.3779 0.376,0.7098 0.919,1.5032 1.629,2.38 0.584,0.7099 1.399,1.0648 2.442,1.0648 1.754,0 2.631,-1.0857 2.631,-3.2569 l -0.313,-23.2994 c 0,-0.7098 -0.23,-1.2944 -0.689,-1.7537 -0.459,-0.5011 -0.96,-0.7516 -1.503,-0.7516 -1.378,0 -2.234,0.7933 -2.568,2.38 v 0.5011 l 0.313,5.1359 c 0.25,3.8832 0.397,8.3928 0.438,13.5287 -2.087,-4.3843 -5.094,-8.9983 -9.019,-13.8419 -1.628,-2.0877 -2.881,-3.5283 -3.758,-4.3216 -0.877,-0.8351 -1.628,-1.2527 -2.254,-1.2527 -1.17,0 -1.921,0.5637 -2.255,1.6911 -0.209,0.8769 -0.313,2.0878 -0.313,3.6327 v 2.0669 l -0.501,17.5371 c 0.041,0.5429 0.25,1.0022 0.626,1.378 0.417,0.334 0.877,0.501 1.378,0.501 1.294,0 2.025,-0.5637 2.192,-1.6911 0.042,-0.167 0.063,-0.6054 0.063,-1.3153 l 0.062,-1.3779 z M 868.476,2.9058 c -4.259,0 -7.746,0.9186 -10.46,2.7559 -2.714,1.8372 -4.071,4.3216 -4.071,7.4533 0,3.0898 0.898,5.449 2.693,7.0775 1.838,1.5866 4.677,2.714 8.518,3.3821 1.754,0.2923 3.362,0.7307 4.823,1.3153 2.923,1.1692 4.384,3.2152 4.384,6.138 0,2.1713 -0.73,4.0503 -2.192,5.637 -1.419,1.5031 -2.902,2.2547 -4.447,2.2547 -1.586,0 -3.236,-0.334 -4.948,-1.0021 -0.125,-0.0417 -0.981,-0.4384 -2.568,-1.19 -1.586,-0.7516 -2.442,-1.1483 -2.567,-1.19 -0.126,-0.0835 -0.355,-0.1253 -0.689,-0.1253 -0.334,0 -0.668,0.0835 -1.003,0.2505 -0.584,0.3341 -1.064,0.7516 -1.44,1.2527 -0.376,0.5011 -0.564,0.9604 -0.564,1.3779 0,1.1274 1.065,2.2548 3.194,3.3822 3.216,1.7954 6.473,2.6932 9.771,2.6932 3.299,0 5.846,-0.7099 7.641,-2.1295 3.216,-2.5888 4.823,-6.5347 4.823,-11.8376 0,-6.305 -3.361,-10.063 -10.084,-11.2739 -2.839,-0.5428 -5.115,-1.19 -6.827,-1.9416 -2.129,-0.9604 -3.194,-2.4636 -3.194,-4.5096 0,-1.5032 0.877,-2.7767 2.631,-3.8206 1.712,-1.0438 3.403,-1.5658 5.073,-1.5658 1.628,0 3.465,0.4802 5.512,1.4406 1.962,0.9186 3.256,1.3779 3.883,1.3779 0.584,0 1.044,-0.2297 1.378,-0.689 0.334,-0.4593 0.501,-1.0021 0.501,-1.6284 0,-1.4197 -0.961,-2.5888 -2.881,-3.5075 -1.838,-0.9186 -4.134,-1.3779 -6.89,-1.3779 z m 31.253,16.4724 c 3.925,0 5.887,-0.856 5.887,-2.5679 0,-0.8351 -0.563,-1.3779 -1.691,-1.6285 l -19.541,0.6264 c -0.585,0.0417 -1.128,0.3131 -1.629,0.8142 -0.459,0.5011 -0.689,1.0021 -0.689,1.5032 0,1.0856 0.648,1.6284 1.942,1.6284 2.296,0 4.844,-0.1044 7.641,-0.3131 -0.25,2.8811 -0.376,6.6182 -0.376,11.2112 0,3.8415 0.063,7.8291 0.188,11.9629 0,1.1691 0.543,1.7537 1.629,1.7537 0.626,0 1.19,-0.1879 1.691,-0.5637 0.543,-0.4176 0.814,-0.9186 0.814,-1.5032 0,-1.5032 -0.021,-2.6723 -0.063,-3.5074 l -0.062,-4.6975 0.125,-14.8439 z m 14.949,22.6104 c -0.125,-3.7579 -0.208,-6.2424 -0.25,-7.4533 1.712,1.1692 3.653,2.6933 5.825,4.5722 2.129,1.879 3.465,3.1734 4.008,3.8833 0.752,0.9186 1.441,1.3779 2.067,1.3779 0.167,0 0.439,-0.0626 0.814,-0.1879 1.002,-0.3341 1.504,-0.9604 1.504,-1.879 0,-1.2944 -1.023,-2.9437 -3.069,-4.948 -2.13,-2.0042 -4.468,-3.8206 -7.015,-5.449 0.334,-0.0418 1.357,-0.5428 3.069,-1.5032 1.712,-0.9604 2.985,-1.7329 3.82,-2.3174 0.961,-0.7099 1.817,-1.6285 2.568,-2.7559 0.794,-1.1274 1.19,-2.1295 1.19,-3.0063 0,-1.9208 -1.023,-3.5283 -3.069,-4.8228 -2.046,-1.3361 -4.405,-2.0042 -7.077,-2.0042 -2.714,0 -4.865,0.3758 -6.451,1.1274 -1.587,0.7516 -2.381,1.7955 -2.381,3.1316 0,13.8627 0.084,21.6501 0.251,23.362 0,0.8351 0.459,1.2527 1.378,1.2527 0.71,0 1.357,-0.2297 1.942,-0.689 0.584,-0.4593 0.876,-1.0021 0.876,-1.6284 z m -0.25,-13.0276 c 0,-4.426 0.021,-7.3071 0.063,-8.6433 1.503,-0.3758 3.048,-0.5637 4.634,-0.5637 1.504,0 2.84,0.3132 4.009,0.9395 1.211,0.5846 1.816,1.3988 1.816,2.4427 -0.125,1.1691 -1.566,2.4427 -4.321,3.8206 -2.798,1.3362 -4.865,2.0042 -6.201,2.0042 z m 31.967,1.378 c 0.919,0 1.608,0 2.067,0 0.459,-0.0418 0.793,-0.0627 1.002,-0.0627 0.501,-0.0835 0.96,-0.3549 1.378,-0.8142 0.417,-0.4593 0.626,-0.9395 0.626,-1.4406 0,-1.0021 -0.647,-1.5867 -1.941,-1.7537 -5.303,0 -8.498,-0.0208 -9.583,-0.0626 -0.042,-0.2923 -0.063,-2.4009 -0.063,-6.3259 1.587,0.1253 3.132,0.1879 4.635,0.1879 4.134,0 6.743,-0.2923 7.829,-0.8769 0.501,-0.334 0.752,-0.8977 0.752,-1.6911 0,-1.0438 -0.668,-1.6702 -2.005,-1.8789 h -0.062 l -10.961,-0.1879 h -1.754 c -1.879,0.0417 -2.818,0.8351 -2.818,2.38 0,2.6723 0.063,5.637 0.188,8.8939 -0.459,0.4593 -0.689,0.9603 -0.689,1.5031 0,0.6264 0.271,1.0857 0.814,1.378 v 10.397 c 0,1.3362 0.125,2.4009 0.376,3.1943 0.25,0.7933 0.898,1.19 1.942,1.19 l 12.276,-0.1253 c 1.628,0 2.442,-0.8768 2.442,-2.6306 0,-0.9186 -0.605,-1.4405 -1.816,-1.5658 l -10.836,0.1879 c 0.042,-0.0417 0.063,-0.6263 0.063,-1.7537 l -0.125,-8.2049 z m 23.793,0 c 0.919,0 1.608,0 2.067,0 0.459,-0.0418 0.793,-0.0627 1.002,-0.0627 0.501,-0.0835 0.96,-0.3549 1.378,-0.8142 0.418,-0.4593 0.626,-0.9395 0.626,-1.4406 0,-1.0021 -0.647,-1.5867 -1.941,-1.7537 -5.303,0 -8.497,-0.0208 -9.583,-0.0626 -0.042,-0.2923 -0.063,-2.4009 -0.063,-6.3259 1.587,0.1253 3.132,0.1879 4.635,0.1879 4.134,0 6.744,-0.2923 7.829,-0.8769 0.501,-0.334 0.752,-0.8977 0.752,-1.6911 0,-1.0438 -0.668,-1.6702 -2.004,-1.8789 h -0.063 l -10.961,-0.1879 h -1.754 c -1.878,0.0417 -2.818,0.8351 -2.818,2.38 0,2.6723 0.063,5.637 0.188,8.8939 -0.459,0.4593 -0.689,0.9603 -0.689,1.5031 0,0.6264 0.271,1.0857 0.814,1.378 v 10.397 c 0,1.3362 0.125,2.4009 0.376,3.1943 0.251,0.7933 0.898,1.19 1.942,1.19 l 12.276,-0.1253 c 1.628,0 2.442,-0.8768 2.442,-2.6306 0,-0.9186 -0.605,-1.4405 -1.816,-1.5658 l -10.836,0.1879 c 0.042,-0.0417 0.063,-0.6263 0.063,-1.7537 l -0.125,-8.2049 z m 29.117,-10.9608 c 3.925,0 5.885,-0.856 5.885,-2.5679 0,-0.8351 -0.56,-1.3779 -1.69,-1.6285 l -19.54,0.6264 c -0.585,0.0417 -1.127,0.3131 -1.628,0.8142 -0.46,0.5011 -0.689,1.0021 -0.689,1.5032 0,1.0856 0.647,1.6284 1.941,1.6284 2.297,0 4.844,-0.1044 7.641,-0.3131 -0.25,2.8811 -0.375,6.6182 -0.375,11.2112 0,3.8415 0.062,7.8291 0.187,11.9629 0,1.1691 0.543,1.7537 1.629,1.7537 0.626,0 1.19,-0.1879 1.691,-0.5637 0.543,-0.4176 0.814,-0.9186 0.814,-1.5032 0,-1.5032 -0.021,-2.6723 -0.062,-3.5074 l -0.063,-4.6975 0.125,-14.8439 z M 1039.18,2.6553 c -1.42,0 -2.44,0.9186 -3.07,2.7558 -1.08,3.1734 -2.17,5.7414 -3.25,7.7039 -0.76,1.4196 -1.57,2.547 -2.45,3.3821 -0.83,0.7934 -1.94,1.5032 -3.32,2.1295 -1.37,0.5846 -2.94,0.8769 -4.69,0.8769 -1.92,0 -3.53,-1.1691 -4.83,-3.5074 -1.29,-2.3383 -2.02,-5.7414 -2.19,-10.2092 -0.04,-0.6681 -0.33,-1.19 -0.87,-1.5658 -0.51,-0.3758 -1.11,-0.5637 -1.82,-0.5637 -0.63,0 -1.19,0.3341 -1.69,1.0021 -0.46,0.6264 -0.69,1.3153 -0.69,2.0669 v 17.7877 c 0,9.3949 -0.02,15.345 -0.06,17.8503 0,1.378 0.56,2.0669 1.69,2.0669 0.96,0 1.75,-0.2505 2.38,-0.7516 0.67,-0.5428 1,-1.2944 1,-2.2548 l -0.06,-11.0233 c 0,-2.6723 0.04,-5.6787 0.12,-9.0191 1.92,2.38 4.34,3.57 7.27,3.57 2.92,0 5.53,-0.7724 7.83,-2.3174 2.29,-1.5449 4.17,-3.5492 5.63,-6.0127 l 0.13,4.5722 c 0.08,3.2569 0.12,5.616 0.12,7.0775 v 14.155 c 0,1.3361 0.55,2.0042 1.63,2.0042 1.21,0 2.05,-0.2296 2.51,-0.6889 0.46,-0.5011 0.73,-1.3988 0.81,-2.6933 0.09,-1.6702 0.13,-6.305 0.13,-13.9044 0,-7.2654 -0.11,-14.6978 -0.32,-22.2973 -0.33,-1.4614 -0.98,-2.1921 -1.94,-2.1921 z m 12.01,40.0223 c 0.21,-1.9207 0.92,-5.0941 2.13,-9.5202 2.26,0.5846 5.2,0.8769 8.83,0.8769 l 2.19,8.5807 c 0.3,1.1691 1.13,1.7537 2.51,1.7537 0.54,0 1,-0.167 1.38,-0.5011 0.37,-0.334 0.56,-0.7516 0.56,-1.2526 -1.13,-4.8854 -2.09,-8.7269 -2.88,-11.5245 -0.84,-2.9646 -1.94,-5.9501 -3.32,-8.9564 -1.38,-2.9646 -2.28,-4.781 -2.69,-5.4491 -0.5,-0.7933 -1.09,-1.19 -1.76,-1.19 -1.29,0 -2.59,1.1483 -3.88,3.4448 -1.42,2.4636 -2.63,5.3447 -3.63,8.6433 -2.42,7.5159 -3.64,12.5266 -3.64,15.0319 0,1.0856 0.65,1.6284 1.95,1.6284 1.33,0 2.08,-0.5219 2.25,-1.5658 z m 6.77,-21.4204 c 1.21,2.5471 2.25,5.4073 3.13,8.5807 -2.51,0 -4.68,-0.2505 -6.52,-0.7516 0.88,-2.9229 2.01,-5.5326 3.39,-7.8291 z m 24.01,-5.8248 c -4.76,0 -7.18,0.8768 -7.27,2.6305 v 23.5499 c 0,0.9604 0.19,1.6702 0.57,2.1296 0.37,0.4175 1.11,0.6263 2.19,0.6263 1.13,0 1.73,-0.4802 1.82,-1.4406 0.08,-1.6702 0.12,-3.1107 0.12,-4.3216 0,-1.9208 -0.06,-4.1964 -0.19,-6.827 1.05,0.167 2.13,0.2505 3.26,0.2505 2.63,0 4.72,-0.5845 6.26,-1.7537 2.13,-1.6284 3.2,-4.1546 3.2,-7.5785 0,-2.2131 -0.92,-3.9668 -2.76,-5.2612 -1.79,-1.3361 -4.19,-2.0042 -7.2,-2.0042 z m -2.88,4.4469 c 1.08,-0.167 1.9,-0.2505 2.44,-0.2505 1,0 2.07,0.1461 3.2,0.4384 1.92,0.5011 2.92,1.2944 3,2.38 v 0.5637 c 0,1.7955 -0.6,3.0482 -1.81,3.758 -0.88,0.5011 -2.2,0.7516 -3.95,0.7516 -1.09,0 -2.09,-0.0627 -3.01,-0.1879 V 24.702 c 0,-2.213 0.05,-3.8206 0.13,-4.8227 z"
     fill="#000000"
     id="path6" />
  <path
     d="m 1217.36,49.9223 c 0,0.2564 -0.3,0.4615 -0.67,0.4615 -0.43,0.0385 -0.72,-0.1666 -0.72,-0.4615 0,-0.2564 0.29,-0.4615 0.67,-0.4615 0.38,-0.0385 0.72,0.1666 0.72,0.4615 z m -4.01,-0.5769 c -0.09,0.2564 0.17,0.5513 0.56,0.6282 0.33,0.1282 0.72,0 0.79,-0.2564 0.08,-0.2564 -0.16,-0.5513 -0.55,-0.6667 -0.33,-0.0897 -0.71,0.0385 -0.8,0.2949 z m 5.69,-0.2179 c -0.37,0.0897 -0.63,0.3333 -0.59,0.6281 0.04,0.2565 0.37,0.4231 0.76,0.3334 0.37,-0.0898 0.63,-0.3334 0.59,-0.5898 -0.04,-0.2435 -0.38,-0.4102 -0.76,-0.3717 z M 1227.51,0 C 1209.66,0 1196,13.4998 1196,31.2816 c 0,14.2177 8.99,26.3842 21.82,30.6662 1.65,0.2948 2.23,-0.718 2.23,-1.5513 0,-0.7949 -0.04,-5.1794 -0.04,-7.8717 0,0 -9.01,1.9231 -10.91,-3.8204 0,0 -1.46,-3.7307 -3.57,-4.6923 0,0 -2.95,-2.0127 0.2,-1.9743 0,0 3.21,0.2564 4.97,3.3077 2.82,4.9486 7.54,3.5255 9.39,2.6794 0.29,-2.0512 1.13,-3.4743 2.05,-4.3204 -7.19,-0.7949 -14.45,-1.8334 -14.45,-14.1665 0,-3.5256 0.98,-5.2948 3.04,-7.5512 -0.34,-0.8333 -1.43,-4.2691 0.33,-8.705 2.69,-0.8333 8.88,3.4615 8.88,3.4615 2.58,-0.7179 5.35,-1.0897 8.09,-1.0897 2.74,0 5.51,0.3718 8.08,1.0897 0,0 6.19,-4.3076 8.88,-3.4615 1.77,4.4487 0.67,7.8717 0.34,8.705 2.06,2.2692 3.32,4.0384 3.32,7.5512 0,12.3716 -7.58,13.3588 -14.78,14.1665 1.19,1.0128 2.19,2.9358 2.19,5.9486 0,4.3204 -0.04,9.6665 -0.04,10.7178 0,0.8333 0.59,1.8461 2.23,1.5512 12.87,-4.2563 21.6,-16.4228 21.6,-30.6405 C 1259.85,13.4998 1245.37,0 1227.51,0 Z m -19,44.2173 c -0.16,0.1282 -0.13,0.423 0.09,0.6666 0.21,0.2051 0.5,0.2949 0.67,0.1282 0.17,-0.1282 0.13,-0.423 -0.09,-0.6666 -0.2,-0.2052 -0.5,-0.2949 -0.67,-0.1282 z m -1.39,-1.0385 c -0.09,0.1667 0.04,0.3718 0.3,0.5 0.2,0.1282 0.46,0.0898 0.55,-0.0897 0.09,-0.1667 -0.04,-0.3718 -0.29,-0.5 -0.26,-0.0769 -0.47,-0.0385 -0.56,0.0897 z m 4.17,4.5641 c -0.2,0.1666 -0.13,0.5512 0.17,0.7948 0.3,0.2949 0.67,0.3333 0.84,0.1282 0.16,-0.1666 0.09,-0.5513 -0.17,-0.7948 -0.28,-0.2949 -0.67,-0.3334 -0.84,-0.1282 z m -1.46,-1.8846 c -0.21,0.1282 -0.21,0.4615 0,0.7564 0.2,0.2948 0.55,0.423 0.72,0.2948 0.2,-0.1666 0.2,-0.5 0,-0.7948 -0.18,-0.2949 -0.52,-0.4231 -0.72,-0.2564 z"
     fill="#000000"
     id="path8" />
  <path
     d="m 535.421,21.3095 c 0,1.8721 1.519,3.3907 3.391,3.3907 1.872,0 3.391,-1.5137 3.391,-3.3907 0,-1.8769 -1.514,-3.3906 -3.391,-3.3906 -1.877,0 -3.391,1.5137 -3.391,3.3906 z m -32.005,39.2707 c 1.892,1.8915 4.959,1.8915 6.851,0 l 14.495,-14.4949 c 4.893,3.2962 11.007,4.9225 17.522,4.0518 11.086,-1.481 20.101,-10.569 21.506,-21.6637 2.088,-16.4929 -11.781,-30.3582 -28.263,-28.2632 -11.097,1.4047 -20.187,10.4225 -21.664,21.5062 -0.871,6.5149 0.755,12.6301 4.052,17.5223 L 503.42,53.7336 c -1.893,1.8818 -1.893,4.9576 -0.004,6.8466 z m 24.97,-38.5199 c 0,-5.7762 4.662,-10.4383 10.535,-10.4383 5.655,0 10.317,4.6621 10.317,10.4383 0,4.644 -6.816,13.1387 -9.429,16.2266 -0.246,0.2785 -0.597,0.4601 -0.888,0.4601 -0.388,0 -0.758,-0.1766 -1.005,-0.459 -2.713,-3.089 -9.53,-11.5898 -9.53,-16.2277 z"
     fill="#000000"
     id="path10" />
  <path
     d="M 34.7482,5.8125 C 34.7482,2.6023 37.3422,0 40.5395,0 h 11.5828 c 3.1973,0 5.7913,2.6023 5.7913,5.8125 V 23.25 h 4.8262 v -8.7188 c 0,-1.6105 1.291,-2.9062 2.8957,-2.9062 1.6046,0 2.8956,1.2957 2.8956,2.9062 V 23.25 h 2.8957 c 3.1973,0 5.7914,2.6035 5.7914,5.8125 v 27.125 C 77.2182,59.3965 74.6241,62 71.4268,62 H 40.5395 c -3.1973,0 -5.7913,-2.6035 -5.7913,-5.8125 z m 7.7218,7.75 c 0,1.0656 0.8687,1.9375 1.9305,1.9375 h 3.8609 c 1.0617,0 1.9304,-0.8719 1.9304,-1.9375 V 9.6875 C 50.1918,8.617 49.3231,7.75 48.2614,7.75 H 44.4005 C 43.3387,7.75 42.47,8.617 42.47,9.6875 Z m 1.9305,5.8125 c -1.0618,0 -1.9305,0.8719 -1.9305,1.9375 v 3.875 c 0,1.0656 0.8687,1.9375 1.9305,1.9375 h 3.8609 c 1.0617,0 1.9304,-0.8719 1.9304,-1.9375 v -3.875 c 0,-1.0656 -0.8687,-1.9375 -1.9304,-1.9375 z M 42.47,36.8125 c 0,1.0656 0.8687,1.9375 1.9305,1.9375 h 3.8609 c 1.0617,0 1.9304,-0.8719 1.9304,-1.9375 v -3.875 C 50.1918,31.8719 49.3231,31 48.2614,31 H 44.4005 C 43.3387,31 42.47,31.8719 42.47,32.9375 Z M 63.705,31 c -1.0617,0 -1.9305,0.8719 -1.9305,1.9375 v 3.875 c 0,1.0656 0.8688,1.9375 1.9305,1.9375 h 3.8609 c 1.0618,0 1.9305,-0.8719 1.9305,-1.9375 v -3.875 C 69.4964,31.8719 68.6277,31 67.5659,31 Z m -1.9305,17.4375 c 0,1.0656 0.8688,1.9375 1.9305,1.9375 h 3.8609 c 1.0618,0 1.9305,-0.8719 1.9305,-1.9375 v -3.875 c 0,-1.0656 -0.8687,-1.9375 -1.9305,-1.9375 H 63.705 c -1.0617,0 -1.9305,0.8719 -1.9305,1.9375 z M 27.0264,19.375 c 0,0.7266 -0.1207,1.332 -0.2413,1.9375 2.413,1.6953 4.1022,4.6016 4.1022,7.75 0,5.4492 -4.3435,9.6875 -9.6523,9.6875 h -1.9305 v 19.375 c 0,2.1797 -1.8098,3.875 -3.8609,3.875 -2.1717,0 -3.8609,-1.6953 -3.8609,-3.875 V 38.75 H 9.65227 C 4.22287,38.75 0,34.5117 0,29.0625 0,25.9141 1.56849,23.0078 3.98156,21.3125 3.86091,20.707 3.86091,20.1016 3.86091,19.375 3.86091,12.957 8.92835,7.75 15.4436,7.75 c 6.3947,0 11.5828,5.207 11.5828,11.625 z"
     fill="#000000"
     id="path12" />
</svg>
